<svg width="62" height="61" viewBox="0 0 62 61" fill="none" xmlns="http://www.w3.org/2000/svg">
<circle cx="31.4988" cy="30.5" r="30" fill="#FCFCFF" stroke="#EFEFFF"/>
<path d="M31.4178 30.5C31.4178 27.8306 33.5575 25.6666 36.1971 25.6666C38.8366 25.6666 40.9764 27.8306 40.9764 30.5C40.9764 33.1694 38.8366 35.3333 36.1971 35.3333C33.5575 35.3333 31.4178 33.1694 31.4178 30.5Z" fill="#1ABCFE"/>
<path d="M21.8591 40.1666C21.8591 37.4973 23.9989 35.3333 26.6385 35.3333H31.4178V40.1666C31.4178 42.836 29.278 45 26.6385 45C23.9989 45 21.8591 42.836 21.8591 40.1666Z" fill="#0ACF83"/>
<path d="M31.4178 16V25.6666H36.1971C38.8367 25.6666 40.9764 23.5027 40.9764 20.8333C40.9764 18.164 38.8367 16 36.1971 16H31.4178Z" fill="#FF7262"/>
<path d="M21.8591 20.8333C21.8591 23.5027 23.9989 25.6666 26.6385 25.6666H31.4178V16H26.6385C23.9989 16 21.8591 18.164 21.8591 20.8333Z" fill="#F24E1E"/>
<path d="M21.8591 30.5C21.8591 33.1694 23.9989 35.3333 26.6385 35.3333H31.4178V25.6666H26.6385C23.9989 25.6666 21.8591 27.8306 21.8591 30.5Z" fill="#A259FF"/>
</svg>
