<svg width="62" height="61" viewBox="0 0 62 61" fill="none" xmlns="http://www.w3.org/2000/svg">
<circle cx="31.4988" cy="30.5" r="30" fill="#FCFCFF" stroke="#EFEFFF"/>
<path d="M17.0007 15.9999H46.4922V44.9999H17.0007V15.9999Z" fill="url(#paint0_linear_1_412)"/>
<path d="M19.3462 18.3061H44.147V42.6938H19.3462V18.3061Z" fill="url(#paint1_linear_1_412)"/>
<path d="M24.1277 24.1734C24.1277 24.1734 25.9923 24.1244 27.5272 24.1244C29.0783 24.1244 30.1842 24.4893 30.9267 25.1305C31.6364 25.7365 32.1149 26.7695 32.1149 27.9454C32.1149 29.1213 31.7518 30.0835 31.0916 30.76C30.2335 31.6331 29.2335 32.1499 27.5272 32.2213C27.0559 32.2411 26.6196 32.2458 26.6196 32.2458V36.0683H24.1276L24.1277 24.1734ZM26.6195 30.128C26.8902 30.1544 27.0599 30.1417 27.4612 30.1369C28.7979 30.1209 29.6228 29.308 29.6228 28.0787C29.6228 26.9743 28.9426 26.0676 27.6594 26.0206C27.1479 26.0019 26.6195 26.0206 26.6195 26.0206V30.128Z" fill="url(#paint2_linear_1_412)"/>
<path d="M33.066 33.4054C33.5683 33.7136 34.7534 34.1751 35.5613 34.1751C36.3867 34.1751 36.7275 33.8842 36.7275 33.4307C36.7275 32.9767 36.4583 32.4997 35.4353 32.1548C33.6226 31.5376 32.9226 30.7987 32.9408 29.7645C32.9408 28.0942 34.3404 26.8418 36.512 26.8418C37.535 26.8418 38.3522 27.1763 38.8901 27.4484V29.453C38.4949 29.235 37.3555 28.7482 36.6019 28.7482C35.9374 28.7482 35.5608 29.0205 35.5608 29.4739C35.5608 29.8915 35.902 30.1093 36.9788 30.4907C38.6475 31.0715 39.3475 31.9244 39.3652 33.2314C39.3652 34.8834 38.0918 36.197 35.5608 36.1173C34.6922 36.09 33.7299 35.7466 33.0658 35.3841L33.066 33.4054Z" fill="url(#paint3_linear_1_412)"/>
<defs>
<linearGradient id="paint0_linear_1_412" x1="24.1677" y1="14.4855" x2="35.4727" y2="38.3737" gradientUnits="userSpaceOnUse">
<stop stop-color="#A0CBFF"/>
<stop offset="0.394" stop-color="#A0CBFE"/>
<stop offset="0.583" stop-color="#8EC2FC"/>
<stop offset="0.784" stop-color="#83BCFB"/>
<stop offset="1" stop-color="#7FBAFB"/>
</linearGradient>
<linearGradient id="paint1_linear_1_412" x1="28.1805" y1="18.6498" x2="34.5703" y2="39.8839" gradientUnits="userSpaceOnUse">
<stop stop-color="#090058"/>
<stop offset="1" stop-color="#070033"/>
</linearGradient>
<linearGradient id="paint2_linear_1_412" x1="20.6515" y1="15.7565" x2="31.9565" y2="39.6445" gradientUnits="userSpaceOnUse">
<stop stop-color="#A0CBFF"/>
<stop offset="0.394" stop-color="#A0CBFE"/>
<stop offset="0.583" stop-color="#8EC2FC"/>
<stop offset="0.784" stop-color="#83BCFB"/>
<stop offset="1" stop-color="#7FBAFB"/>
</linearGradient>
<linearGradient id="paint3_linear_1_412" x1="27.0909" y1="12.6374" x2="38.4408" y2="36.62" gradientUnits="userSpaceOnUse">
<stop stop-color="#A0CBFF"/>
<stop offset="0.394" stop-color="#A0CBFE"/>
<stop offset="0.583" stop-color="#8EC2FC"/>
<stop offset="0.784" stop-color="#83BCFB"/>
<stop offset="1" stop-color="#7FBAFB"/>
</linearGradient>
</defs>
</svg>
