<svg width="62" height="61" viewBox="0 0 62 61" fill="none" xmlns="http://www.w3.org/2000/svg">
<circle cx="31.4988" cy="30.5" r="30" fill="#FCFCFF" stroke="#EFEFFF"/>
<g clip-path="url(#clip0_1_428)">
<path d="M17.9138 17.242H45.1732V43.7579H17.9138V17.242Z" fill="#2E001E"/>
<path d="M16.6747 16.003V44.997H46.4122V16.003H16.6747ZM17.9138 17.242H45.1732V43.7579H17.9138V17.242Z" fill="#FF2BC2"/>
<path d="M38.2716 28.1829C38.0858 28.0962 37.8503 28.059 37.553 28.059C35.9917 28.059 34.9509 29.2609 34.9509 31.2558C34.9509 33.5357 36.0165 34.4526 37.4043 34.4526C37.7017 34.4526 38.0238 34.4154 38.2592 34.3163V28.1829H38.2716ZM32.7206 31.3549C32.7206 28.4679 34.5792 26.2128 37.6273 26.2128C37.8875 26.2128 38.0238 26.2128 38.2716 26.2376V23.016C38.2716 22.9417 38.3336 22.8921 38.3955 22.8921H40.3904C40.4895 22.8921 40.5143 22.9293 40.5143 22.9912V34.3163C40.5143 34.6508 40.5143 35.0721 40.5763 35.5306C40.5763 35.6173 40.5763 35.6297 40.5019 35.6669C39.4611 36.1625 38.3707 36.3855 37.3299 36.3855C34.6412 36.3855 32.7206 34.7252 32.7206 31.3549ZM28.4954 29.3476L31.9648 36.0757C32.0267 36.1749 31.9896 36.274 31.8905 36.274H29.7345C29.5982 36.274 29.5362 36.2368 29.4743 36.1129C28.6813 34.4774 27.8759 32.7798 27.0457 31.0204H27.0209C26.2775 32.6807 25.4597 34.4897 24.6667 36.1253C24.6048 36.2244 24.5428 36.2616 24.4437 36.2616H22.3868C22.2629 36.2616 22.2506 36.1625 22.3125 36.0881L25.7075 29.5583L22.424 23.0656C22.3497 22.9665 22.424 22.8797 22.5108 22.8797H24.6419C24.7658 22.8797 24.8278 22.9045 24.865 23.016C25.6456 24.664 26.4386 26.2872 27.182 27.9475H27.2068C27.9255 26.3119 28.7185 24.664 29.4743 23.0408C29.5362 22.9417 29.5734 22.8797 29.6973 22.8797H31.6922C31.7913 22.8797 31.8285 22.9541 31.7665 23.0656L28.4954 29.3476Z" fill="#FF2BC2"/>
</g>
<defs>
<clipPath id="clip0_1_428">
<rect width="29.7375" height="29" fill="white" transform="translate(16.6747 16)"/>
</clipPath>
</defs>
</svg>
